<svg xmlns="http://www.w3.org/2000/svg" viewBox="0 0 1200 900" preserveAspectRatio="xMidYMid slice"><defs><linearGradient id="sky" x1="0" y1="0" x2="0" y2="1"><stop offset="0" stop-color="#0f3f78"/><stop offset="0.55" stop-color="#20a7c9"/><stop offset="1" stop-color="#f8d77a"/></linearGradient><linearGradient id="sea" x1="0" y1="0" x2="1" y2="1"><stop offset="0" stop-color="#05314f"/><stop offset="1" stop-color="#0ea5e9"/></linearGradient></defs><rect width="1200" height="900" fill="url(#sky)"/><circle cx="930" cy="170" r="95" fill="#fde68a" opacity=".95"/><rect y="620" width="1200" height="280" fill="url(#sea)"/><path d="M0 640 C200 590 340 675 540 630 C735 585 880 650 1200 610 V900 H0Z" fill="#082f49" opacity=".35"/><g fill="#f8fafc"><rect x="370" y="330" width="360" height="250" rx="10"/><rect x="420" y="270" width="260" height="70" rx="8"/><rect x="485" y="175" width="130" height="110" rx="10"/><circle cx="550" cy="165" r="58"/><rect x="535" y="82" width="30" height="95"/><path d="M455 270 L550 185 L645 270Z"/></g><g fill="#082f49" opacity=".75"><rect x="410" y="380" width="38" height="80" rx="18"/><rect x="490" y="380" width="38" height="80" rx="18"/><rect x="570" y="380" width="38" height="80" rx="18"/><rect x="650" y="380" width="38" height="80" rx="18"/></g><g fill="#022c22"><path d="M80 610 L135 480 L190 610Z"/><path d="M160 615 L220 455 L280 615Z"/><path d="M1010 620 L1070 470 L1130 620Z"/><path d="M930 625 L990 500 L1050 625Z"/></g><image href="/finland/helsinki.jpg" x="0" y="0" width="1200" height="900" preserveAspectRatio="xMidYMid slice" opacity="1"/></svg>