<svg xmlns="http://www.w3.org/2000/svg" viewBox="0 0 1200 900" preserveAspectRatio="xMidYMid slice"><defs><linearGradient id="sky" x1="0" y1="0" x2="0" y2="1"><stop offset="0" stop-color="#0f172a"/><stop offset=".45" stop-color="#0284c7"/><stop offset="1" stop-color="#facc15"/></linearGradient><linearGradient id="water" x1="0" y1="0" x2="1" y2="1"><stop offset="0" stop-color="#082f49"/><stop offset="1" stop-color="#38bdf8"/></linearGradient></defs><rect width="1200" height="900" fill="url(#sky)"/><circle cx="930" cy="210" r="110" fill="#fde68a" opacity=".9"/><path d="M0 520 C190 460 320 535 500 500 C690 465 820 535 1200 480 V900 H0Z" fill="url(#water)"/><path d="M0 530 C260 610 430 520 650 595 C880 675 1020 560 1200 625 V900 H0Z" fill="#0c4a6e" opacity=".45"/><g fill="#022c22"><path d="M40 520 L95 370 L150 520Z"/><path d="M120 535 L180 340 L240 535Z"/><path d="M240 520 L295 380 L350 520Z"/><path d="M980 520 L1040 340 L1100 520Z"/><path d="M1060 535 L1120 380 L1180 535Z"/></g><g transform="translate(560 470)"><rect x="0" y="65" width="220" height="95" rx="8" fill="#7c2d12"/><path d="M-15 70 L110 0 L235 70Z" fill="#451a03"/><rect x="80" y="95" width="55" height="65" fill="#1e293b"/><rect x="25" y="95" width="38" height="35" fill="#fef3c7"/><rect x="155" y="95" width="38" height="35" fill="#fef3c7"/></g></svg>